<?xml version="1.0" encoding="UTF-8"?>
<svg id="a" data-name="ART" xmlns="http://www.w3.org/2000/svg" viewBox="0 0 288 288">
  <path d="m59.7,141h25.3v8h-34.2l.3-4.3c1.1-15.2,9.9-28.7,23.4-35.7,3.6-1.9,6.2-5.3,7-9.4,3.3-16.6,18.7-28.1,35.5-26.5,4,.4,8.1-1,10.9-4,7.5-8.1,17.9-12.9,29-13.1l.1,4-.1-4h1.1c15.6,0,29.8,8.8,36.7,22.7.6,1.3,1.5,2.5,2.5,3.5-3,.3-5.9.8-8.8,1.7-.3-.5-.6-1.1-.9-1.6-5.5-11.3-17-18.3-29.5-18.3h-.9c-8.9.2-17.3,4-23.3,10.6-4.5,4.8-10.9,7.2-17.5,6.6-12.8-1.2-24.4,7.5-26.9,20.1-1.3,6.4-5.4,11.9-11.2,14.9-9.6,4.9-16.4,14.1-18.5,24.8Zm137.3-37.2h7.9l11.1,38.5h-8.5l-1.9-8.1h-9.6l-1.9,8.1h-8.2l11.1-38.5Zm.5,23.8h6.6l-3.3-14.4-3.3,14.4Zm-33.4-5.2l-7.3-7.3-5.7,5.7,16.9,16.8,16.8-16.8-5.7-5.7-7,7c1.5-15.9,15.7-27.6,31.7-26.1,9.6.9,18.2,6.6,22.8,15.2l5.9-5.8c-10.8-17.3-33.6-22.6-51-11.8-10.1,6.3-16.5,17-17.4,28.8h0Zm86.7,6.8l-16.8-16.9-16.8,16.8,5.7,5.7,7-7c-1.5,15.9-15.7,27.6-31.7,26.1-9.6-.9-18.2-6.6-22.8-15.2l-5.9,5.9c10.8,17.3,33.6,22.6,51,11.8,10.1-6.3,16.5-17,17.3-28.8l7.3,7.3,5.7-5.7Zm-61.8,38c2.6.8,5.3,1.3,8,1.6v45.5c0,5.4-5.7,9.4-17.4,12.2-9.6,2.3-22.2,3.6-35.6,3.6s-26-1.3-35.6-3.5c-11.7-2.8-17.4-6.8-17.4-12.2v-85.4c0-5.4,5.7-9.3,17.5-11.9,9.3-2,21.9-3.1,35.5-3.1h2v8h-2c-28.5,0-43.2,4.7-45,7.3v.5c1.9,2.9,18.2,8,45,8,5.5,0,10.6-.2,15.2-.6.7,2.7,1.8,5.3,3,7.8-5.8.5-11.9.8-18.3.8-13.4,0-26-1.3-35.6-3.5-3.2-.7-6.3-1.8-9.4-3.1v18.6c1.9,2.9,18.2,8,45,8,14.8,0,26.4-1.6,34.2-3.4,3.4,2,7,3.6,10.9,4.8-3.1,1.3-6.2,2.3-9.4,3-9.6,2.3-22.2,3.5-35.6,3.5s-26-1.3-35.6-3.5c-3.2-.7-6.4-1.7-9.4-3.1v18.9c1.9,2.9,18.2,8,45,8s43.1-5.1,45-8v-18.8Zm0,28.1c-3,1.3-6.2,2.3-9.4,3.1-9.6,2.3-22.2,3.6-35.6,3.6s-26-1.3-35.6-3.5c-3.2-.7-6.4-1.8-9.4-3.1v18.6c1.7,2.4,16.5,8,45,8s43.3-5.5,45-8v-18.7Z" fill="#c74634" stroke-width="0"/>
</svg>